# Blender v3.5.0 OBJ File: ''
# www.blender.org
mtllib dai.mtl
o 立方体
v 0.128917 0.413034 -0.876150
v -0.128878 0.413000 -0.876150
v 0.113672 0.428103 -0.876150
v 0.096999 0.441189 -0.876150
v 0.079106 0.452127 -0.876150
v 0.060219 0.460780 -0.876150
v 0.040575 0.467039 -0.876150
v 0.020421 0.470824 -0.876150
v 0.000011 0.472090 -0.876150
v -0.020398 0.470819 -0.876150
v -0.040551 0.467028 -0.876150
v -0.060193 0.460764 -0.876150
v -0.079078 0.452106 -0.876150
v -0.096968 0.441163 -0.876150
v -0.113638 0.428073 -0.876150
v -0.128878 0.413000 -1.316151
v 0.128917 0.413034 -1.316151
v -0.113638 0.428073 -1.316151
v -0.096968 0.441163 -1.316151
v -0.079078 0.452106 -1.316151
v -0.060193 0.460764 -1.316151
v -0.040551 0.467028 -1.316151
v -0.020398 0.470819 -1.316151
v 0.000011 0.472090 -1.316151
v 0.020421 0.470824 -1.316151
v 0.040575 0.467039 -1.316151
v 0.060219 0.460780 -1.316151
v 0.079106 0.452127 -1.316151
v 0.096999 0.441189 -1.316151
v 0.113672 0.428103 -1.316151
v -1.183928 -0.754640 -0.876150
v -1.074943 -1.000000 -0.876150
v -1.220826 -0.802507 -0.876150
v -1.243597 -0.848535 -0.876150
v -1.251368 -0.890955 -0.876150
v -1.243839 -0.928136 -0.876150
v -1.221299 -0.958649 -0.876150
v -1.184615 -0.981323 -0.876150
v -1.135197 -0.995285 -0.876150
v -1.074943 -1.000000 -1.316151
v -1.183928 -0.754640 -1.316151
v -1.135197 -0.995286 -1.316151
v -1.184615 -0.981323 -1.316151
v -1.221299 -0.958649 -1.316151
v -1.243839 -0.928136 -1.316151
v -1.251368 -0.890955 -1.316151
v -1.243597 -0.848535 -1.316151
v -1.220826 -0.802507 -1.316151
v 1.068450 -1.000000 -0.876150
v 1.179758 -0.749320 -0.876150
v 1.130024 -0.995183 -0.876150
v 1.180522 -0.980918 -0.876150
v 1.218004 -0.957753 -0.876150
v 1.241030 -0.926577 -0.876150
v 1.248714 -0.888590 -0.876150
v 1.240761 -0.845251 -0.876150
v 1.217478 -0.798225 -0.876150
v 1.179758 -0.749320 -1.316151
v 1.068450 -1.000000 -1.316151
v 1.217478 -0.798225 -1.316151
v 1.240761 -0.845251 -1.316151
v 1.248714 -0.888590 -1.316151
v 1.241030 -0.926577 -1.316151
v 1.218004 -0.957753 -1.316151
v 1.180522 -0.980918 -1.316151
v 1.130024 -0.995183 -1.316151
v 0.128917 0.413034 1.311516
v -0.128878 0.413000 1.311516
v 0.113672 0.428103 1.311516
v 0.096999 0.441189 1.311516
v 0.079106 0.452127 1.311516
v 0.060219 0.460780 1.311516
v 0.040575 0.467039 1.311516
v 0.020421 0.470824 1.311516
v 0.000011 0.472090 1.311516
v -0.020398 0.470819 1.311516
v -0.040551 0.467028 1.311516
v -0.060193 0.460764 1.311516
v -0.079078 0.452106 1.311516
v -0.096968 0.441163 1.311516
v -0.113638 0.428073 1.311516
v -0.128878 0.413000 0.871516
v 0.128917 0.413034 0.871516
v -0.113638 0.428073 0.871516
v -0.096968 0.441163 0.871516
v -0.079078 0.452106 0.871516
v -0.060193 0.460764 0.871516
v -0.040551 0.467028 0.871516
v -0.020398 0.470819 0.871516
v 0.000011 0.472090 0.871516
v 0.020421 0.470824 0.871516
v 0.040575 0.467039 0.871516
v 0.060219 0.460780 0.871516
v 0.079106 0.452127 0.871516
v 0.096999 0.441189 0.871516
v 0.113672 0.428103 0.871516
v -1.183928 -0.754640 1.311516
v -1.074943 -1.000000 1.311516
v -1.220826 -0.802507 1.311516
v -1.243597 -0.848535 1.311516
v -1.251368 -0.890955 1.311516
v -1.243839 -0.928136 1.311516
v -1.221299 -0.958649 1.311516
v -1.184615 -0.981323 1.311516
v -1.135197 -0.995285 1.311516
v -1.074943 -1.000000 0.871516
v -1.183928 -0.754640 0.871516
v -1.135197 -0.995286 0.871516
v -1.184615 -0.981323 0.871516
v -1.221299 -0.958649 0.871516
v -1.243839 -0.928136 0.871516
v -1.251368 -0.890955 0.871516
v -1.243597 -0.848535 0.871516
v -1.220826 -0.802507 0.871516
v 1.068450 -1.000000 1.311516
v 1.179758 -0.749320 1.311516
v 1.130024 -0.995183 1.311516
v 1.180522 -0.980918 1.311516
v 1.218004 -0.957753 1.311516
v 1.241030 -0.926577 1.311516
v 1.248714 -0.888590 1.311516
v 1.240761 -0.845251 1.311516
v 1.217478 -0.798225 1.311516
v 1.179758 -0.749320 0.871516
v 1.068450 -1.000000 0.871516
v 1.217478 -0.798225 0.871516
v 1.240761 -0.845251 0.871516
v 1.248714 -0.888590 0.871516
v 1.241030 -0.926577 0.871516
v 1.218004 -0.957753 0.871516
v 1.180522 -0.980918 0.871516
v 1.130024 -0.995183 0.871516
vt 0.375000 0.719956
vt 0.602078 0.727078
vt 0.602084 0.750000
vt 0.602078 0.250000
vt 0.414431 0.500000
vt 0.414431 0.250000
vt 0.604630 0.500000
vt 0.602078 0.500000
vt 0.604630 0.250000
vt 0.607121 0.500000
vt 0.607121 0.250000
vt 0.609519 0.500000
vt 0.609519 0.250000
vt 0.611795 0.500000
vt 0.611795 0.250000
vt 0.613919 0.500000
vt 0.613919 0.250000
vt 0.615866 0.500000
vt 0.615866 0.250000
vt 0.625000 0.500000
vt 0.625000 1.000000
vt 0.615868 0.750000
vt 0.625000 0.750000
vt 0.615868 1.000000
vt 0.613922 0.750000
vt 0.613922 1.000000
vt 0.611798 0.750000
vt 0.611798 1.000000
vt 0.609523 0.750000
vt 0.609523 1.000000
vt 0.607125 0.750000
vt 0.607125 1.000000
vt 0.604635 0.750000
vt 0.604635 1.000000
vt 0.375000 0.030044
vt 0.602084 0.227084
vt 0.125000 0.529399
vt 0.375000 0.524042
vt 0.375000 0.529399
vt 0.125000 0.524042
vt 0.375000 0.519649
vt 0.125000 0.519649
vt 0.375000 0.516388
vt 0.125000 0.516388
vt 0.375000 0.500000
vt 0.375000 0.250000
vt 0.396979 0.500000
vt 0.396979 0.250000
vt 0.401354 0.500000
vt 0.401354 0.250000
vt 0.407246 0.500000
vt 0.407246 0.250000
vt 0.415286 0.750000
vt 0.602084 1.000000
vt 0.415286 1.000000
vt 0.125000 0.725430
vt 0.125000 0.719956
vt 0.375000 0.725430
vt 0.125000 0.729920
vt 0.375000 0.729920
vt 0.125000 0.733252
vt 0.375000 0.733252
vt 0.125000 0.750000
vt 0.375000 0.750000
vt 0.397457 1.000000
vt 0.375000 1.000000
vt 0.397457 0.750000
vt 0.401926 1.000000
vt 0.401926 0.750000
vt 0.407946 1.000000
vt 0.407946 0.750000
vt 0.375000 0.719956
vt 0.602078 0.727078
vt 0.602084 0.750000
vt 0.602078 0.250000
vt 0.414431 0.500000
vt 0.414431 0.250000
vt 0.604630 0.500000
vt 0.602078 0.500000
vt 0.604630 0.250000
vt 0.607121 0.500000
vt 0.607121 0.250000
vt 0.609519 0.500000
vt 0.609519 0.250000
vt 0.611795 0.500000
vt 0.611795 0.250000
vt 0.613919 0.500000
vt 0.613919 0.250000
vt 0.615866 0.500000
vt 0.615866 0.250000
vt 0.625000 0.500000
vt 0.625000 1.000000
vt 0.615868 0.750000
vt 0.625000 0.750000
vt 0.615868 1.000000
vt 0.613922 0.750000
vt 0.613922 1.000000
vt 0.611798 0.750000
vt 0.611798 1.000000
vt 0.609523 0.750000
vt 0.609523 1.000000
vt 0.607125 0.750000
vt 0.607125 1.000000
vt 0.604635 0.750000
vt 0.604635 1.000000
vt 0.375000 0.030044
vt 0.602084 0.227084
vt 0.125000 0.529399
vt 0.375000 0.524042
vt 0.375000 0.529399
vt 0.125000 0.524042
vt 0.375000 0.519649
vt 0.125000 0.519649
vt 0.375000 0.516388
vt 0.125000 0.516388
vt 0.375000 0.500000
vt 0.375000 0.250000
vt 0.396979 0.500000
vt 0.396979 0.250000
vt 0.401354 0.500000
vt 0.401354 0.250000
vt 0.407246 0.500000
vt 0.407246 0.250000
vt 0.415286 0.750000
vt 0.602084 1.000000
vt 0.415286 1.000000
vt 0.125000 0.725430
vt 0.125000 0.719956
vt 0.375000 0.725430
vt 0.125000 0.729920
vt 0.375000 0.729920
vt 0.125000 0.733252
vt 0.375000 0.733252
vt 0.125000 0.750000
vt 0.375000 0.750000
vt 0.397457 1.000000
vt 0.375000 1.000000
vt 0.397457 0.750000
vt 0.401926 1.000000
vt 0.401926 0.750000
vt 0.407946 1.000000
vt 0.407946 0.750000
vt 0.375758 0.524421
vt 0.414431 0.539431
vt 0.378001 0.521150
vt 0.399341 0.526579
vt 0.381645 0.519711
vt 0.392524 0.522479
vt 0.386549 0.520160
vt 0.406738 0.532303
vt 0.604500 0.729645
vt 0.604505 0.749856
vt 0.606604 0.732179
vt 0.606608 0.749425
vt 0.608363 0.734649
vt 0.609754 0.737024
vt 0.608366 0.748714
vt 0.610761 0.739273
vt 0.610763 0.746487
vt 0.611370 0.741370
vt 0.611371 0.744999
vt 0.611574 0.743286
vt 0.609757 0.747730
vt 0.407427 0.749423
vt 0.399869 0.747713
vt 0.378067 0.731453
vt 0.392904 0.744937
vt 0.381789 0.736647
vt 0.386799 0.741200
vt 0.375774 0.725817
vt 0.625000 0.250000
vt 0.375000 0.220601
vt 0.375774 0.024957
vt 0.415286 0.040286
vt 0.378066 0.021613
vt 0.399869 0.027156
vt 0.381789 0.020142
vt 0.392904 0.022968
vt 0.386799 0.020599
vt 0.407427 0.033004
vt 0.604505 0.229650
vt 0.604500 0.249856
vt 0.606608 0.232183
vt 0.606604 0.249425
vt 0.608366 0.234653
vt 0.609757 0.237027
vt 0.608363 0.248714
vt 0.610763 0.239276
vt 0.610761 0.246487
vt 0.611371 0.241372
vt 0.611370 0.245000
vt 0.611574 0.243288
vt 0.609754 0.247731
vt 0.406738 0.249435
vt 0.399341 0.247762
vt 0.378001 0.231851
vt 0.392524 0.245045
vt 0.381645 0.236934
vt 0.386549 0.241389
vt 0.375758 0.226336
vt 0.125000 0.500000
vt 0.375758 0.524421
vt 0.414431 0.539431
vt 0.378001 0.521150
vt 0.399341 0.526579
vt 0.381645 0.519711
vt 0.392524 0.522479
vt 0.386549 0.520160
vt 0.406738 0.532303
vt 0.604500 0.729645
vt 0.604505 0.749856
vt 0.606604 0.732179
vt 0.606608 0.749425
vt 0.608363 0.734649
vt 0.609754 0.737024
vt 0.608366 0.748714
vt 0.610761 0.739273
vt 0.610763 0.746487
vt 0.611370 0.741370
vt 0.611371 0.744999
vt 0.611574 0.743286
vt 0.609757 0.747730
vt 0.407427 0.749423
vt 0.399869 0.747713
vt 0.378067 0.731453
vt 0.392904 0.744937
vt 0.381789 0.736647
vt 0.386799 0.741200
vt 0.375774 0.725817
vt 0.625000 0.250000
vt 0.375000 0.220601
vt 0.375774 0.024957
vt 0.415286 0.040286
vt 0.378066 0.021613
vt 0.399869 0.027156
vt 0.381789 0.020142
vt 0.392904 0.022968
vt 0.386799 0.020599
vt 0.407427 0.033004
vt 0.604505 0.229650
vt 0.604500 0.249856
vt 0.606608 0.232183
vt 0.606604 0.249425
vt 0.608366 0.234653
vt 0.609757 0.237027
vt 0.608363 0.248714
vt 0.610763 0.239276
vt 0.610761 0.246487
vt 0.611371 0.241372
vt 0.611370 0.245000
vt 0.611574 0.243288
vt 0.609754 0.247731
vt 0.406738 0.249435
vt 0.399341 0.247762
vt 0.378001 0.231851
vt 0.392524 0.245045
vt 0.381645 0.236934
vt 0.386549 0.241389
vt 0.375758 0.226336
vt 0.125000 0.500000
vn 0.0000 0.0000 -1.0000
vn -0.7420 0.6704 0.0000
vn -0.7032 0.7110 0.0000
vn -0.6176 0.7865 -0.0000
vn -0.5218 0.8531 -0.0000
vn -0.4167 0.9090 0.0000
vn -0.3038 0.9527 0.0000
vn -0.1849 0.9828 0.0000
vn -0.0622 0.9981 -0.0000
vn 0.0619 0.9981 -0.0000
vn 0.1846 0.9828 0.0000
vn 0.3036 0.9528 -0.0000
vn 0.4165 0.9091 -0.0000
vn 0.5216 0.8532 0.0000
vn 0.6174 0.7867 0.0000
vn 0.7030 0.7112 0.0000
vn -0.0000 0.0000 1.0000
vn -0.0780 -0.9970 0.0000
vn -0.2719 -0.9623 0.0000
vn -0.5258 -0.8506 0.0000
vn -0.8044 -0.5942 0.0000
vn -0.9801 -0.1985 0.0000
vn -0.9836 0.1802 0.0000
vn -0.8963 0.4434 0.0000
vn -0.7920 0.6105 0.0000
vn 0.7418 0.6706 0.0000
vn 0.0780 -0.9970 0.0000
vn 0.2718 -0.9623 0.0000
vn 0.5257 -0.8506 0.0000
vn 0.8044 -0.5941 0.0000
vn 0.9801 -0.1983 0.0000
vn 0.9836 0.1805 0.0000
vn 0.8962 0.4437 0.0000
vn 0.7918 0.6107 0.0000
vn 0.0000 -1.0000 0.0000
vn 0.2719 -0.9623 0.0000
vn 0.5257 -0.8507 0.0000
usemtl None
s off
f 59/1/1 16/2/1 17/3/1
f 2/4/2 41/5/2 31/6/2
f 2/4/3 18/7/3 16/8/3
f 15/9/4 19/10/4 18/7/4
f 14/11/5 20/12/5 19/10/5
f 13/13/6 21/14/6 20/12/6
f 12/15/7 22/16/7 21/14/7
f 11/17/8 23/18/8 22/16/8
f 10/19/9 24/20/9 23/18/9
f 9/21/10 25/22/10 24/23/10
f 8/24/11 26/25/11 25/22/11
f 7/26/12 27/27/12 26/25/12
f 6/28/13 28/29/13 27/27/13
f 5/30/14 29/31/14 28/29/14
f 4/32/15 30/33/15 29/31/15
f 3/34/16 17/3/16 30/33/16
f 49/35/17 1/36/17 2/4/17
f 32/37/18 42/38/18 40/39/18
f 39/40/19 43/41/19 42/38/19
f 38/42/20 44/43/20 43/41/20
f 37/44/21 45/45/21 44/43/21
f 36/46/22 46/47/22 45/45/22
f 35/48/23 47/49/23 46/47/23
f 34/50/24 48/51/24 47/49/24
f 33/52/25 41/5/25 48/51/25
f 58/53/26 1/54/26 50/55/26
f 59/1/27 51/56/27 49/57/27
f 66/58/28 52/59/28 51/56/28
f 65/60/29 53/61/29 52/59/29
f 64/62/30 54/63/30 53/61/30
f 63/64/31 55/65/31 54/66/31
f 62/67/32 56/68/32 55/65/32
f 61/69/33 57/70/33 56/68/33
f 60/71/34 50/55/34 57/70/34
f 32/37/35 59/1/35 49/57/35
f 125/72/1 82/73/1 83/74/1
f 68/75/2 107/76/2 97/77/2
f 68/75/3 84/78/3 82/79/3
f 81/80/4 85/81/4 84/78/4
f 80/82/5 86/83/5 85/81/5
f 79/84/6 87/85/6 86/83/6
f 78/86/7 88/87/7 87/85/7
f 77/88/8 89/89/8 88/87/8
f 76/90/9 90/91/9 89/89/9
f 75/92/10 91/93/10 90/94/10
f 74/95/11 92/96/11 91/93/11
f 73/97/12 93/98/12 92/96/12
f 72/99/13 94/100/13 93/98/13
f 71/101/14 95/102/14 94/100/14
f 70/103/15 96/104/15 95/102/15
f 69/105/16 83/74/16 96/104/16
f 115/106/17 67/107/17 68/75/17
f 98/108/18 108/109/18 106/110/18
f 105/111/19 109/112/19 108/109/19
f 104/113/20 110/114/20 109/112/20
f 103/115/21 111/116/21 110/114/21
f 102/117/22 112/118/22 111/116/22
f 101/119/23 113/120/23 112/118/23
f 100/121/24 114/122/24 113/120/24
f 99/123/25 107/76/25 114/122/25
f 124/124/26 67/125/26 116/126/26
f 125/72/27 117/127/27 115/128/27
f 132/129/28 118/130/28 117/127/28
f 131/131/29 119/132/29 118/130/29
f 130/133/30 120/134/30 119/132/30
f 129/135/31 121/136/31 120/137/31
f 128/138/32 122/139/32 121/136/32
f 127/140/33 123/141/33 122/139/33
f 126/142/34 116/126/34 123/141/34
f 106/110/35 115/128/35 98/108/35
f 59/1/1 40/39/1 16/2/1
f 40/39/1 42/143/1 41/144/1
f 16/2/1 40/39/1 41/144/1
f 42/143/1 43/145/1 47/146/1
f 43/145/1 44/147/1 46/148/1
f 44/147/1 45/149/1 46/148/1
f 46/148/1 47/146/1 43/145/1
f 47/146/1 48/150/1 42/143/1
f 48/150/1 41/144/1 42/143/1
f 16/2/1 18/151/1 30/152/1
f 18/151/1 19/153/1 29/154/1
f 19/153/1 20/155/1 29/154/1
f 20/155/1 21/156/1 28/157/1
f 29/154/1 20/155/1 28/157/1
f 21/156/1 22/158/1 26/159/1
f 22/158/1 23/160/1 25/161/1
f 23/160/1 24/162/1 25/161/1
f 25/161/1 26/159/1 22/158/1
f 26/159/1 27/163/1 21/156/1
f 27/163/1 28/157/1 21/156/1
f 29/154/1 30/152/1 18/151/1
f 30/152/1 17/3/1 16/2/1
f 17/3/1 58/53/1 59/1/1
f 58/53/1 60/164/1 59/1/1
f 60/164/1 61/165/1 65/166/1
f 61/165/1 62/167/1 64/168/1
f 62/167/1 63/169/1 64/168/1
f 64/168/1 65/166/1 61/165/1
f 65/166/1 66/170/1 60/164/1
f 66/170/1 59/1/1 60/164/1
f 2/4/2 16/8/2 41/5/2
f 2/4/3 15/9/3 18/7/3
f 15/9/4 14/11/4 19/10/4
f 14/11/5 13/13/5 20/12/5
f 13/13/6 12/15/6 21/14/6
f 12/15/7 11/17/7 22/16/7
f 11/17/8 10/19/8 23/18/8
f 10/19/9 9/171/9 24/20/9
f 9/21/10 8/24/10 25/22/10
f 8/24/11 7/26/11 26/25/11
f 7/26/12 6/28/12 27/27/12
f 6/28/13 5/30/13 28/29/13
f 5/30/14 4/32/14 29/31/14
f 4/32/15 3/34/15 30/33/15
f 3/34/16 1/54/16 17/3/16
f 32/172/17 49/35/17 2/4/17
f 49/35/17 51/173/17 50/174/17
f 1/36/17 49/35/17 50/174/17
f 51/173/17 52/175/17 56/176/17
f 52/175/17 53/177/17 55/178/17
f 53/177/17 54/179/17 55/178/17
f 55/178/17 56/176/17 52/175/17
f 56/176/17 57/180/17 51/173/17
f 57/180/17 50/174/17 51/173/17
f 1/36/17 3/181/17 15/182/17
f 3/181/17 4/183/17 14/184/17
f 4/183/17 5/185/17 14/184/17
f 5/185/17 6/186/17 13/187/17
f 14/184/17 5/185/17 13/187/17
f 6/186/17 7/188/17 11/189/17
f 7/188/17 8/190/17 10/191/17
f 8/190/17 9/192/17 10/191/17
f 10/191/17 11/189/17 7/188/17
f 11/189/17 12/193/17 6/186/17
f 12/193/17 13/187/17 6/186/17
f 14/184/17 15/182/17 3/181/17
f 15/182/17 2/4/17 1/36/17
f 2/4/17 31/6/17 32/172/17
f 31/6/17 33/194/17 32/172/17
f 33/194/17 34/195/17 38/196/17
f 34/195/17 35/197/17 37/198/17
f 35/197/17 36/199/17 37/198/17
f 37/198/17 38/196/17 34/195/17
f 38/196/17 39/200/17 33/194/17
f 39/200/17 32/172/17 33/194/17
f 32/37/18 39/40/18 42/38/18
f 39/40/19 38/42/19 43/41/19
f 38/42/20 37/44/20 44/43/20
f 37/44/21 36/201/21 45/45/21
f 36/46/22 35/48/22 46/47/22
f 35/48/23 34/50/23 47/49/23
f 34/50/24 33/52/24 48/51/24
f 33/52/25 31/6/25 41/5/25
f 58/53/26 17/3/26 1/54/26
f 59/1/27 66/58/27 51/56/27
f 66/58/36 65/60/36 52/59/36
f 65/60/37 64/62/37 53/61/37
f 64/62/30 63/64/30 54/63/30
f 63/64/31 62/67/31 55/65/31
f 62/67/32 61/69/32 56/68/32
f 61/69/33 60/71/33 57/70/33
f 60/71/34 58/53/34 50/55/34
f 32/37/35 40/39/35 59/1/35
f 125/72/1 106/110/1 82/73/1
f 106/110/1 108/202/1 107/203/1
f 82/73/1 106/110/1 107/203/1
f 108/202/1 109/204/1 113/205/1
f 109/204/1 110/206/1 112/207/1
f 110/206/1 111/208/1 112/207/1
f 112/207/1 113/205/1 109/204/1
f 113/205/1 114/209/1 108/202/1
f 114/209/1 107/203/1 108/202/1
f 82/73/1 84/210/1 96/211/1
f 84/210/1 85/212/1 95/213/1
f 85/212/1 86/214/1 95/213/1
f 86/214/1 87/215/1 94/216/1
f 95/213/1 86/214/1 94/216/1
f 87/215/1 88/217/1 92/218/1
f 88/217/1 89/219/1 91/220/1
f 89/219/1 90/221/1 91/220/1
f 91/220/1 92/218/1 88/217/1
f 92/218/1 93/222/1 87/215/1
f 93/222/1 94/216/1 87/215/1
f 95/213/1 96/211/1 84/210/1
f 96/211/1 83/74/1 82/73/1
f 83/74/1 124/124/1 125/72/1
f 124/124/1 126/223/1 125/72/1
f 126/223/1 127/224/1 131/225/1
f 127/224/1 128/226/1 130/227/1
f 128/226/1 129/228/1 130/227/1
f 130/227/1 131/225/1 127/224/1
f 131/225/1 132/229/1 126/223/1
f 132/229/1 125/72/1 126/223/1
f 68/75/2 82/79/2 107/76/2
f 68/75/3 81/80/3 84/78/3
f 81/80/4 80/82/4 85/81/4
f 80/82/5 79/84/5 86/83/5
f 79/84/6 78/86/6 87/85/6
f 78/86/7 77/88/7 88/87/7
f 77/88/8 76/90/8 89/89/8
f 76/90/9 75/230/9 90/91/9
f 75/92/10 74/95/10 91/93/10
f 74/95/11 73/97/11 92/96/11
f 73/97/12 72/99/12 93/98/12
f 72/99/13 71/101/13 94/100/13
f 71/101/14 70/103/14 95/102/14
f 70/103/15 69/105/15 96/104/15
f 69/105/16 67/125/16 83/74/16
f 98/231/17 115/106/17 68/75/17
f 115/106/17 117/232/17 116/233/17
f 67/107/17 115/106/17 116/233/17
f 117/232/17 118/234/17 122/235/17
f 118/234/17 119/236/17 121/237/17
f 119/236/17 120/238/17 121/237/17
f 121/237/17 122/235/17 118/234/17
f 122/235/17 123/239/17 117/232/17
f 123/239/17 116/233/17 117/232/17
f 67/107/17 69/240/17 81/241/17
f 69/240/17 70/242/17 80/243/17
f 70/242/17 71/244/17 80/243/17
f 71/244/17 72/245/17 79/246/17
f 80/243/17 71/244/17 79/246/17
f 72/245/17 73/247/17 77/248/17
f 73/247/17 74/249/17 76/250/17
f 74/249/17 75/251/17 76/250/17
f 76/250/17 77/248/17 73/247/17
f 77/248/17 78/252/17 72/245/17
f 78/252/17 79/246/17 72/245/17
f 80/243/17 81/241/17 69/240/17
f 81/241/17 68/75/17 67/107/17
f 68/75/17 97/77/17 98/231/17
f 97/77/17 99/253/17 98/231/17
f 99/253/17 100/254/17 104/255/17
f 100/254/17 101/256/17 103/257/17
f 101/256/17 102/258/17 103/257/17
f 103/257/17 104/255/17 100/254/17
f 104/255/17 105/259/17 99/253/17
f 105/259/17 98/231/17 99/253/17
f 98/108/18 105/111/18 108/109/18
f 105/111/19 104/113/19 109/112/19
f 104/113/20 103/115/20 110/114/20
f 103/115/21 102/260/21 111/116/21
f 102/117/22 101/119/22 112/118/22
f 101/119/23 100/121/23 113/120/23
f 100/121/24 99/123/24 114/122/24
f 99/123/25 97/77/25 107/76/25
f 124/124/26 83/74/26 67/125/26
f 125/72/27 132/129/27 117/127/27
f 132/129/36 131/131/36 118/130/36
f 131/131/37 130/133/37 119/132/37
f 130/133/30 129/135/30 120/134/30
f 129/135/31 128/138/31 121/136/31
f 128/138/32 127/140/32 122/139/32
f 127/140/33 126/142/33 123/141/33
f 126/142/34 124/124/34 116/126/34
f 106/110/35 125/72/35 115/128/35
